<svg xmlns="http://www.w3.org/2000/svg" viewBox="0 0 24 24"><path d="M21.8 12.2 c0-.7-.06-1.4-.18-2H12 v3.9 h5.5 a4.7 4.7 0 0 1 -2 3.1 v2.5 h3.3 C20.7 17.9 21.8 15.3 21.8 12.2 Z" fill="#4285F4"/><path d="M12 22 c2.7 0 5-.9 6.7-2.4 l-3.3-2.5 c-.9.6-2.1 1-3.4 1 a5.9 5.9 0 0 1 -5.5-4 H3.1 v2.6 A10 10 0 0 0 12 22 Z" fill="#34A853"/><path d="M6.5 14 a6 6 0 0 1 0-3.9 V7.5 H3.1 a10 10 0 0 0 0 9 Z" fill="#FBBC05"/><path d="M12 6 c1.5 0 2.8.5 3.8 1.5 L18.7 4.6 A10 10 0 0 0 3.1 7.5 l3.4 2.6 A5.9 5.9 0 0 1 12 6 Z" fill="#EA4335"/></svg>